<svg xmlns="http://www.w3.org/2000/svg" xmlns:xlink="http://www.w3.org/1999/xlink" width="200" zoomAndPan="magnify" viewBox="0 0 375 374.999991" height="200" preserveAspectRatio="xMidYMid meet" version="1.0">
    <defs>
        <g />
        <clipPath id="id1">
            <path d="M 7.398438 166.796875 L 82.300781 166.796875 L 82.300781 223.648438 L 7.398438 223.648438 Z M 7.398438 166.796875 " clip-rule="nonzero" />
        </clipPath>
        <clipPath id="id2">
            <path d="M 47 156.148438 L 54 156.148438 L 54 167 L 47 167 Z M 47 156.148438 " clip-rule="nonzero" />
        </clipPath>
        <clipPath id="id3">
            <path d="M 35 156.148438 L 43 156.148438 L 43 167 L 35 167 Z M 35 156.148438 " clip-rule="nonzero" />
        </clipPath>
    </defs>
    <g clip-path="url(#id1)">
        <path fill="#ffffff" d="M 79.195312 175.835938 C 68.734375 175.863281 58.867188 185.3125 56.457031 187.792969 C 57.082031 185.863281 58.144531 183.238281 59.84375 180.671875 C 63.542969 175.105469 68.625 172.28125 74.953125 172.28125 C 76.542969 172.28125 78.230469 172.460938 79.984375 172.816406 C 79.769531 173.875 79.507812 174.878906 79.195312 175.835938 Z M 75.957031 182.042969 C 69.300781 182.121094 62.21875 185.132812 58.257812 187.125 C 61.824219 183.765625 70.265625 176.78125 78.925781 176.613281 C 78.171875 178.679688 77.1875 180.492188 75.957031 182.042969 Z M 71.898438 185.703125 C 67.820312 188.289062 63.035156 188.828125 59.738281 188.828125 C 58.683594 188.828125 57.722656 188.777344 56.90625 188.699219 C 60.03125 186.996094 67.863281 183.144531 75.289062 182.832031 C 74.292969 183.941406 73.164062 184.898438 71.898438 185.703125 Z M 73.292969 202.117188 L 56.351562 190.859375 C 56.753906 190.828125 57.199219 190.804688 57.671875 190.792969 C 58.308594 190.832031 59 190.859375 59.738281 190.859375 C 59.816406 190.859375 59.894531 190.859375 59.972656 190.859375 C 65.351562 191.277344 71.289062 193.773438 73.292969 202.117188 Z M 69.824219 203.03125 C 60.941406 203.03125 57.257812 195.523438 55.921875 191.5 L 72.863281 202.761719 C 71.8125 202.9375 70.792969 203.03125 69.824219 203.03125 Z M 55.777344 204.5 C 55.757812 204.660156 55.738281 204.820312 55.71875 204.980469 L 33.792969 204.980469 C 33.773438 204.820312 33.753906 204.660156 33.738281 204.5 C 33.453125 201.859375 33.503906 199.472656 33.875 197.375 L 55.640625 197.375 C 56.011719 199.472656 56.058594 201.859375 55.777344 204.5 Z M 53.703125 213.265625 L 35.808594 213.265625 C 35.050781 211.332031 34.476562 209.199219 34.09375 207.011719 L 55.421875 207.011719 C 55.039062 209.199219 54.464844 211.332031 53.703125 213.265625 Z M 44.757812 221.628906 C 41.289062 221.582031 38.597656 219.003906 36.714844 215.292969 L 52.796875 215.292969 C 50.917969 219.003906 48.222656 221.582031 44.757812 221.628906 Z M 19.871094 203.03125 C 18.902344 203.03125 17.886719 202.9375 16.832031 202.761719 L 33.777344 191.5 C 33.742188 191.605469 33.703125 191.714844 33.667969 191.824219 C 33.148438 192.730469 32.726562 193.722656 32.398438 194.789062 C 30.40625 198.652344 26.65625 203.03125 19.871094 203.03125 Z M 29.726562 190.859375 C 29.804688 190.859375 29.882812 190.859375 29.957031 190.859375 C 30.695312 190.859375 31.390625 190.832031 32.027344 190.792969 C 32.5 190.804688 32.941406 190.828125 33.347656 190.859375 L 16.40625 202.117188 C 18.40625 193.773438 24.34375 191.277344 29.726562 190.859375 Z M 17.800781 185.703125 C 16.535156 184.898438 15.40625 183.941406 14.410156 182.832031 C 21.832031 183.144531 29.664062 186.996094 32.789062 188.703125 C 31.972656 188.777344 31.011719 188.828125 29.957031 188.828125 C 26.664062 188.828125 21.878906 188.289062 17.800781 185.703125 Z M 13.738281 182.042969 C 12.511719 180.492188 11.523438 178.679688 10.773438 176.613281 C 19.453125 176.75 27.902344 183.769531 31.457031 187.132812 C 27.496094 185.144531 20.40625 182.125 13.738281 182.042969 Z M 33.964844 190.914062 Z M 36.75 190.976562 C 38.6875 188.8125 41.527344 187.613281 44.757812 187.589844 C 47.984375 187.613281 50.824219 188.8125 52.765625 190.976562 C 53.820312 192.15625 54.613281 193.625 55.148438 195.347656 L 34.367188 195.347656 C 34.898438 193.625 35.695312 192.15625 36.75 190.976562 Z M 36.421875 177.199219 C 36.421875 172.589844 40.160156 168.839844 44.757812 168.839844 C 49.351562 168.839844 53.09375 172.589844 53.09375 177.199219 C 53.09375 181.808594 49.351562 185.558594 44.757812 185.558594 C 40.160156 185.558594 36.421875 181.808594 36.421875 177.199219 Z M 82.230469 171.257812 C 79.570312 170.5625 77.15625 170.25 74.953125 170.25 C 59.75 170.25 54.980469 185.0625 53.933594 189.265625 C 52.699219 188 51.207031 187.039062 49.53125 186.410156 C 52.847656 184.675781 55.117188 181.199219 55.117188 177.199219 C 55.117188 171.46875 50.46875 166.808594 44.757812 166.808594 C 39.042969 166.808594 34.398438 171.46875 34.398438 177.199219 C 34.398438 181.199219 36.667969 184.675781 39.980469 186.410156 C 38.371094 187.011719 36.929688 187.921875 35.726562 189.113281 C 34.605469 184.71875 29.773438 170.253906 14.742188 170.25 L 14.742188 172.28125 C 21.074219 172.28125 26.15625 175.105469 29.851562 180.675781 C 31.554688 183.238281 32.613281 185.863281 33.238281 187.792969 C 30.835938 185.304688 20.992188 175.835938 10.519531 175.835938 C 10.511719 175.835938 10.507812 175.835938 10.503906 175.835938 C 10.191406 174.878906 9.925781 173.875 9.714844 172.816406 C 11.46875 172.460938 13.152344 172.28125 14.742188 172.28125 L 14.742188 170.25 C 12.539062 170.25 10.125 170.5625 7.46875 171.257812 L 7.398438 171.273438 L 7.410156 171.347656 C 9.28125 184.316406 17.097656 188.882812 24.09375 190.296875 C 19.65625 192.007812 15.425781 195.828125 14.25 203.964844 L 14.242188 204.023438 L 14.296875 204.035156 C 16.332031 204.570312 18.1875 204.808594 19.871094 204.808594 C 25.394531 204.808594 29.117188 202.257812 31.597656 199.234375 C 31.472656 200.925781 31.515625 202.75 31.726562 204.71875 C 32.957031 216.167969 38.066406 223.585938 44.757812 223.65625 C 51.445312 223.585938 56.554688 216.167969 57.789062 204.71875 C 58.007812 202.65625 58.046875 200.746094 57.902344 198.984375 C 60.378906 202.117188 64.15625 204.808594 69.824219 204.808594 C 71.511719 204.808594 73.363281 204.570312 75.402344 204.035156 L 75.457031 204.023438 L 75.449219 203.964844 C 74.273438 195.828125 70.042969 192.007812 65.601562 190.296875 C 72.601562 188.882812 80.417969 184.316406 82.289062 171.347656 L 82.300781 171.273438 L 82.230469 171.257812 " fill-opacity="1" fill-rule="nonzero" />
    </g>
    <g clip-path="url(#id2)">
        <path fill="#ffffff" d="M 48.179688 165.859375 L 53.351562 157.949219 C 53.769531 157.390625 53.535156 156.585938 52.882812 156.34375 C 52.367188 156.148438 51.789062 156.394531 51.566406 156.898438 L 47.460938 165.449219 C 47.238281 165.917969 47.898438 166.292969 48.179688 165.859375 " fill-opacity="1" fill-rule="nonzero" />
    </g>
    <g clip-path="url(#id3)">
        <path fill="#ffffff" d="M 41.332031 165.859375 C 41.613281 166.292969 42.273438 165.917969 42.050781 165.449219 L 37.949219 156.898438 C 37.722656 156.394531 37.148438 156.148438 36.632812 156.34375 C 35.980469 156.585938 35.746094 157.390625 36.160156 157.949219 L 41.332031 165.859375 " fill-opacity="1" fill-rule="nonzero" />
    </g>
    <g fill="#ffffff" fill-opacity="1">
        <g transform="translate(89.045821, 217.839492)">
            <g>
                <path d="M 20.234375 -25.609375 L 29.9375 -46.625 L 40.4375 -46.625 L 25.140625 -16.90625 L 25.140625 0 L 15.375 0 L 15.375 -16.90625 L 0.0625 -46.625 L 10.59375 -46.625 Z M 20.234375 -25.609375 " />
            </g>
        </g>
    </g>
    <g fill="#ffffff" fill-opacity="1">
        <g transform="translate(132.330961, 217.839492)">
            <g>
                <path d="M 39.453125 -46.625 L 39.453125 -15.921875 C 39.453125 -10.816406 37.851562 -6.78125 34.65625 -3.8125 C 31.46875 -0.84375 27.109375 0.640625 21.578125 0.640625 C 16.140625 0.640625 11.816406 -0.796875 8.609375 -3.671875 C 5.410156 -6.554688 3.78125 -10.519531 3.71875 -15.5625 L 3.71875 -46.625 L 13.328125 -46.625 L 13.328125 -15.84375 C 13.328125 -12.789062 14.054688 -10.566406 15.515625 -9.171875 C 16.972656 -7.773438 18.992188 -7.078125 21.578125 -7.078125 C 26.984375 -7.078125 29.726562 -9.914062 29.8125 -15.59375 L 29.8125 -46.625 Z M 39.453125 -46.625 " />
            </g>
        </g>
    </g>
    <g fill="#ffffff" fill-opacity="1">
        <g transform="translate(178.241319, 217.839492)">
            <g />
        </g>
    </g>
    <g fill="#ffffff" fill-opacity="1">
        <g transform="translate(197.323242, 217.839492)">
            <g>
                <path d="M 40.765625 -15.53125 C 40.398438 -10.507812 38.546875 -6.554688 35.203125 -3.671875 C 31.867188 -0.796875 27.46875 0.640625 22 0.640625 C 16.019531 0.640625 11.316406 -1.367188 7.890625 -5.390625 C 4.460938 -9.421875 2.75 -14.945312 2.75 -21.96875 L 2.75 -24.8125 C 2.75 -29.300781 3.539062 -33.25 5.125 -36.65625 C 6.707031 -40.070312 8.960938 -42.691406 11.890625 -44.515625 C 14.828125 -46.347656 18.238281 -47.265625 22.125 -47.265625 C 27.507812 -47.265625 31.84375 -45.820312 35.125 -42.9375 C 38.414062 -40.050781 40.316406 -36.003906 40.828125 -30.796875 L 31.21875 -30.796875 C 30.988281 -33.804688 30.148438 -35.988281 28.703125 -37.34375 C 27.265625 -38.707031 25.070312 -39.390625 22.125 -39.390625 C 18.925781 -39.390625 16.53125 -38.238281 14.9375 -35.9375 C 13.34375 -33.644531 12.523438 -30.085938 12.484375 -25.265625 L 12.484375 -21.734375 C 12.484375 -16.703125 13.242188 -13.019531 14.765625 -10.6875 C 16.296875 -8.363281 18.707031 -7.203125 22 -7.203125 C 24.96875 -7.203125 27.179688 -7.878906 28.640625 -9.234375 C 30.097656 -10.585938 30.9375 -12.6875 31.15625 -15.53125 Z M 40.765625 -15.53125 " />
            </g>
        </g>
    </g>
    <g fill="#ffffff" fill-opacity="1">
        <g transform="translate(242.977474, 217.839492)">
            <g>
                <path d="M 13.765625 -7.71875 L 34.171875 -7.71875 L 34.171875 0 L 4.15625 0 L 4.15625 -46.625 L 13.765625 -46.625 Z M 13.765625 -7.71875 " />
            </g>
        </g>
    </g>
    <g fill="#ffffff" fill-opacity="1">
        <g transform="translate(281.236284, 217.839492)">
            <g>
                <path d="M 39.453125 -46.625 L 39.453125 -15.921875 C 39.453125 -10.816406 37.851562 -6.78125 34.65625 -3.8125 C 31.46875 -0.84375 27.109375 0.640625 21.578125 0.640625 C 16.140625 0.640625 11.816406 -0.796875 8.609375 -3.671875 C 5.410156 -6.554688 3.78125 -10.519531 3.71875 -15.5625 L 3.71875 -46.625 L 13.328125 -46.625 L 13.328125 -15.84375 C 13.328125 -12.789062 14.054688 -10.566406 15.515625 -9.171875 C 16.972656 -7.773438 18.992188 -7.078125 21.578125 -7.078125 C 26.984375 -7.078125 29.726562 -9.914062 29.8125 -15.59375 L 29.8125 -46.625 Z M 39.453125 -46.625 " />
            </g>
        </g>
    </g>
    <g fill="#ffffff" fill-opacity="1">
        <g transform="translate(327.146635, 217.839492)">
            <g>
                <path d="M 4.15625 0 L 4.15625 -46.625 L 20.5 -46.625 C 26.15625 -46.625 30.441406 -45.539062 33.359375 -43.375 C 36.285156 -41.207031 37.75 -38.03125 37.75 -33.84375 C 37.75 -31.5625 37.160156 -29.550781 35.984375 -27.8125 C 34.816406 -26.070312 33.1875 -24.796875 31.09375 -23.984375 C 33.476562 -23.390625 35.359375 -22.179688 36.734375 -20.359375 C 38.117188 -18.546875 38.8125 -16.328125 38.8125 -13.703125 C 38.8125 -9.222656 37.378906 -5.828125 34.515625 -3.515625 C 31.660156 -1.210938 27.582031 -0.0390625 22.28125 0 Z M 13.765625 -20.296875 L 13.765625 -7.71875 L 22 -7.71875 C 24.257812 -7.71875 26.023438 -8.253906 27.296875 -9.328125 C 28.566406 -10.410156 29.203125 -11.898438 29.203125 -13.796875 C 29.203125 -18.066406 26.992188 -20.234375 22.578125 -20.296875 Z M 13.765625 -27.09375 L 20.875 -27.09375 C 25.71875 -27.175781 28.140625 -29.109375 28.140625 -32.890625 C 28.140625 -35.003906 27.523438 -36.523438 26.296875 -37.453125 C 25.078125 -38.378906 23.144531 -38.84375 20.5 -38.84375 L 13.765625 -38.84375 Z M 13.765625 -27.09375 " />
            </g>
        </g>
    </g>
</svg>