<svg xmlns="http://www.w3.org/2000/svg" xmlns:xlink="http://www.w3.org/1999/xlink" width="80" zoomAndPan="magnify" viewBox="0 0 375 374.999991" height="80" preserveAspectRatio="xMidYMid meet" version="1.0"><defs><g/><clipPath id="id1"><path d="M 43.101562 138.886719 L 168.929688 138.886719 L 168.929688 234.265625 L 43.101562 234.265625 Z M 43.101562 138.886719 " clip-rule="nonzero"/></clipPath><clipPath id="id2"><path d="M 110 121.015625 L 121 121.015625 L 121 138 L 110 138 Z M 110 121.015625 " clip-rule="nonzero"/></clipPath><clipPath id="id3"><path d="M 91 121.015625 L 102 121.015625 L 102 138 L 91 138 Z M 91 121.015625 " clip-rule="nonzero"/></clipPath></defs><g clip-path="url(#id1)"><path fill="#ffffff" d="M 163.710938 154.050781 C 146.140625 154.09375 129.5625 169.953125 125.515625 174.113281 C 126.566406 170.875 128.347656 166.46875 131.207031 162.164062 C 137.417969 152.820312 145.953125 148.082031 156.585938 148.082031 C 159.257812 148.082031 162.089844 148.382812 165.039062 148.984375 C 164.679688 150.757812 164.234375 152.445312 163.710938 154.050781 Z M 158.273438 164.460938 C 147.089844 164.597656 135.195312 169.648438 128.539062 172.988281 C 134.53125 167.351562 148.710938 155.636719 163.257812 155.355469 C 161.996094 158.820312 160.335938 161.863281 158.273438 164.460938 Z M 151.453125 170.601562 C 144.601562 174.941406 136.5625 175.851562 131.027344 175.851562 C 129.257812 175.851562 127.644531 175.757812 126.269531 175.632812 C 131.523438 172.773438 144.679688 166.3125 157.148438 165.789062 C 155.476562 167.648438 153.578125 169.257812 151.453125 170.601562 Z M 153.792969 198.144531 L 125.335938 179.253906 C 126.015625 179.199219 126.761719 179.164062 127.554688 179.144531 C 128.625 179.210938 129.789062 179.253906 131.027344 179.253906 C 131.160156 179.253906 131.289062 179.253906 131.421875 179.253906 C 140.460938 179.960938 150.433594 184.140625 153.792969 198.144531 Z M 147.972656 199.675781 C 133.046875 199.675781 126.859375 187.078125 124.617188 180.332031 L 153.078125 199.226562 C 151.308594 199.519531 149.597656 199.675781 147.972656 199.675781 Z M 124.371094 202.140625 C 124.34375 202.410156 124.308594 202.679688 124.277344 202.949219 L 87.445312 202.949219 C 87.410156 202.679688 87.378906 202.410156 87.347656 202.140625 C 86.871094 197.710938 86.957031 193.703125 87.578125 190.1875 L 124.140625 190.1875 C 124.761719 193.703125 124.847656 197.710938 124.371094 202.140625 Z M 120.890625 216.847656 L 90.828125 216.847656 C 89.554688 213.601562 88.589844 210.023438 87.945312 206.351562 L 123.773438 206.351562 C 123.132812 210.023438 122.164062 213.601562 120.890625 216.847656 Z M 105.859375 230.878906 C 100.035156 230.796875 95.511719 226.472656 92.351562 220.25 L 119.367188 220.25 C 116.207031 226.472656 111.683594 230.796875 105.859375 230.878906 Z M 64.058594 199.675781 C 62.429688 199.675781 60.71875 199.519531 58.953125 199.226562 L 87.414062 180.332031 C 87.355469 180.507812 87.292969 180.6875 87.230469 180.875 C 86.359375 182.394531 85.652344 184.054688 85.097656 185.851562 C 81.753906 192.328125 75.457031 199.675781 64.058594 199.675781 Z M 80.609375 179.253906 C 80.742188 179.253906 80.871094 179.253906 81 179.253906 C 82.242188 179.253906 83.40625 179.210938 84.472656 179.144531 C 85.269531 179.164062 86.015625 179.199219 86.691406 179.253906 L 58.234375 198.144531 C 61.59375 184.140625 71.570312 179.960938 80.609375 179.253906 Z M 60.578125 170.601562 C 58.449219 169.257812 56.554688 167.648438 54.882812 165.789062 C 67.351562 166.3125 80.507812 172.773438 85.757812 175.636719 C 84.382812 175.757812 82.769531 175.851562 81 175.851562 C 75.464844 175.851562 67.429688 174.941406 60.578125 170.601562 Z M 53.753906 164.460938 C 51.691406 161.863281 50.035156 158.816406 48.773438 155.351562 C 63.355469 155.582031 77.546875 167.359375 83.515625 173 C 76.863281 169.664062 64.953125 164.597656 53.753906 164.460938 Z M 87.730469 179.34375 Z M 92.40625 179.453125 C 95.664062 175.820312 100.4375 173.804688 105.859375 173.765625 C 111.28125 173.804688 116.054688 175.820312 119.3125 179.453125 C 121.082031 181.429688 122.417969 183.894531 123.316406 186.78125 L 88.402344 186.78125 C 89.300781 183.894531 90.636719 181.429688 92.40625 179.453125 Z M 91.855469 156.335938 C 91.855469 148.601562 98.136719 142.308594 105.859375 142.308594 C 113.582031 142.308594 119.863281 148.601562 119.863281 156.335938 C 119.863281 164.066406 113.582031 170.359375 105.859375 170.359375 C 98.136719 170.359375 91.855469 164.066406 91.855469 156.335938 Z M 168.808594 146.367188 C 164.34375 145.199219 160.285156 144.679688 156.585938 144.679688 C 131.046875 144.679688 123.03125 169.527344 121.273438 176.582031 C 119.203125 174.460938 116.695312 172.84375 113.878906 171.792969 C 119.449219 168.882812 123.261719 163.046875 123.261719 156.335938 C 123.261719 146.722656 115.457031 138.90625 105.859375 138.90625 C 96.265625 138.90625 88.457031 146.722656 88.457031 156.335938 C 88.457031 163.046875 92.269531 168.882812 97.839844 171.792969 C 95.132812 172.800781 92.710938 174.328125 90.691406 176.328125 C 88.808594 168.957031 80.6875 144.683594 55.441406 144.679688 C 55.441406 144.679688 55.4375 144.679688 55.4375 144.679688 L 55.441406 148.082031 C 66.074219 148.085938 74.613281 152.820312 80.820312 162.167969 C 83.679688 166.46875 85.460938 170.871094 86.511719 174.109375 C 82.472656 169.9375 65.9375 154.046875 48.34375 154.046875 C 48.335938 154.046875 48.328125 154.046875 48.316406 154.046875 C 47.796875 152.445312 47.351562 150.757812 46.992188 148.984375 C 49.9375 148.382812 52.769531 148.082031 55.4375 148.082031 L 55.4375 144.679688 C 51.742188 144.679688 47.683594 145.199219 43.21875 146.367188 L 43.101562 146.398438 L 43.121094 146.519531 C 46.265625 168.277344 59.394531 175.9375 71.152344 178.308594 C 63.695312 181.179688 56.585938 187.589844 54.613281 201.246094 L 54.597656 201.339844 L 54.691406 201.359375 C 58.113281 202.257812 61.222656 202.65625 64.058594 202.65625 C 73.332031 202.65625 79.589844 198.378906 83.753906 193.304688 C 83.546875 196.140625 83.613281 199.207031 83.96875 202.503906 C 86.039062 221.71875 94.621094 234.160156 105.859375 234.28125 C 117.097656 234.160156 125.679688 221.71875 127.75 202.503906 C 128.121094 199.046875 128.183594 195.839844 127.941406 192.890625 C 132.101562 198.144531 138.445312 202.65625 147.972656 202.65625 C 150.804688 202.65625 153.917969 202.257812 157.339844 201.359375 L 157.429688 201.339844 L 157.417969 201.246094 C 155.441406 187.589844 148.335938 181.179688 140.878906 178.308594 C 152.632812 175.9375 165.761719 168.277344 168.910156 146.519531 L 168.929688 146.398438 L 168.808594 146.367188 " fill-opacity="1" fill-rule="nonzero"/></g><g clip-path="url(#id2)"><path fill="#ffffff" d="M 111.613281 137.308594 L 120.296875 124.039062 C 121 123.101562 120.605469 121.753906 119.507812 121.34375 C 118.640625 121.019531 117.671875 121.425781 117.296875 122.273438 L 110.40625 136.625 C 110.03125 137.410156 111.136719 138.035156 111.613281 137.308594 " fill-opacity="1" fill-rule="nonzero"/></g><g clip-path="url(#id3)"><path fill="#ffffff" d="M 100.105469 137.308594 C 100.582031 138.035156 101.691406 137.410156 101.316406 136.625 L 94.421875 122.273438 C 94.046875 121.425781 93.078125 121.019531 92.210938 121.34375 C 91.117188 121.753906 90.71875 123.101562 91.421875 124.039062 L 100.105469 137.308594 " fill-opacity="1" fill-rule="nonzero"/></g><g fill="#ffffff" fill-opacity="1"><g transform="translate(172.885013, 225.374985)"><g><path d="M 34.375 -43.515625 L 50.859375 -79.203125 L 68.703125 -79.203125 L 42.703125 -28.71875 L 42.703125 0 L 26.109375 0 L 26.109375 -28.71875 L 0.109375 -79.203125 L 18 -79.203125 Z M 34.375 -43.515625 "/></g></g></g><g fill="#ffffff" fill-opacity="1"><g transform="translate(246.434086, 225.374985)"><g><path d="M 67.015625 -79.203125 L 67.015625 -27.03125 C 67.015625 -18.363281 64.300781 -11.507812 58.875 -6.46875 C 53.457031 -1.425781 46.050781 1.09375 36.65625 1.09375 C 27.414062 1.09375 20.070312 -1.351562 14.625 -6.25 C 9.1875 -11.144531 6.414062 -17.875 6.3125 -26.4375 L 6.3125 -79.203125 L 22.625 -79.203125 L 22.625 -26.921875 C 22.625 -21.734375 23.863281 -17.953125 26.34375 -15.578125 C 28.832031 -13.203125 32.269531 -12.015625 36.65625 -12.015625 C 45.832031 -12.015625 50.492188 -16.835938 50.640625 -26.484375 L 50.640625 -79.203125 Z M 67.015625 -79.203125 "/></g></g></g></svg>
