<svg xmlns="http://www.w3.org/2000/svg" xmlns:xlink="http://www.w3.org/1999/xlink" width="80" zoomAndPan="magnify" viewBox="0 0 375 374.999991" height="80" preserveAspectRatio="xMidYMid meet" version="1.0"><defs><g/></defs><g fill="#ffffff" fill-opacity="1"><g transform="translate(38.904835, 211.377994)"><g><path d="M 14.859375 0 L 4.9375 0 L 4.9375 -48.203125 L 14.859375 -48.203125 Z M 14.859375 0 "/></g></g></g><g fill="#ffffff" fill-opacity="1"><g transform="translate(61.514355, 211.377994)"><g><path d="M 4.296875 0 L 4.296875 -48.203125 L 19.140625 -48.203125 C 23.367188 -48.203125 27.15625 -47.242188 30.5 -45.328125 C 33.84375 -43.421875 36.453125 -40.707031 38.328125 -37.1875 C 40.203125 -33.664062 41.140625 -29.664062 41.140625 -25.1875 L 41.140625 -22.96875 C 41.140625 -18.488281 40.21875 -14.503906 38.375 -11.015625 C 36.539062 -7.535156 33.945312 -4.832031 30.59375 -2.90625 C 27.238281 -0.988281 23.453125 -0.0195312 19.234375 0 Z M 14.234375 -40.15625 L 14.234375 -7.984375 L 19.03125 -7.984375 C 22.914062 -7.984375 25.882812 -9.25 27.9375 -11.78125 C 29.988281 -14.320312 31.035156 -17.953125 31.078125 -22.671875 L 31.078125 -25.21875 C 31.078125 -30.125 30.0625 -33.835938 28.03125 -36.359375 C 26.007812 -38.890625 23.046875 -40.15625 19.140625 -40.15625 Z M 14.234375 -40.15625 "/></g></g></g><g fill="#ffffff" fill-opacity="1"><g transform="translate(108.420766, 211.377994)"><g><path d="M 33.296875 -20.890625 L 14.234375 -20.890625 L 14.234375 -7.984375 L 36.609375 -7.984375 L 36.609375 0 L 4.296875 0 L 4.296875 -48.203125 L 36.546875 -48.203125 L 36.546875 -40.15625 L 14.234375 -40.15625 L 14.234375 -28.671875 L 33.296875 -28.671875 Z M 33.296875 -20.890625 "/></g></g></g><g fill="#ffffff" fill-opacity="1"><g transform="translate(149.401907, 211.377994)"><g><path d="M 31.515625 -9.9375 L 14.109375 -9.9375 L 10.796875 0 L 0.234375 0 L 18.171875 -48.203125 L 27.375 -48.203125 L 45.421875 0 L 34.859375 0 Z M 16.78125 -17.96875 L 28.828125 -17.96875 L 22.78125 -36.015625 Z M 16.78125 -17.96875 "/></g></g></g><g fill="#ffffff" fill-opacity="1"><g transform="translate(197.864108, 211.377994)"><g><path d="M 14.234375 -7.984375 L 35.328125 -7.984375 L 35.328125 0 L 4.296875 0 L 4.296875 -48.203125 L 14.234375 -48.203125 Z M 14.234375 -7.984375 "/></g></g></g><g fill="#ffffff" fill-opacity="1"><g transform="translate(237.421867, 211.377994)"><g><path d="M 31.515625 -9.9375 L 14.109375 -9.9375 L 10.796875 0 L 0.234375 0 L 18.171875 -48.203125 L 27.375 -48.203125 L 45.421875 0 L 34.859375 0 Z M 16.78125 -17.96875 L 28.828125 -17.96875 L 22.78125 -36.015625 Z M 16.78125 -17.96875 "/></g></g></g><g fill="#ffffff" fill-opacity="1"><g transform="translate(285.884068, 211.377994)"><g><path d="M 4.296875 0 L 4.296875 -48.203125 L 21.1875 -48.203125 C 27.03125 -48.203125 31.460938 -47.082031 34.484375 -44.84375 C 37.515625 -42.601562 39.03125 -39.316406 39.03125 -34.984375 C 39.03125 -32.628906 38.421875 -30.550781 37.203125 -28.75 C 35.992188 -26.945312 34.304688 -25.628906 32.140625 -24.796875 C 34.617188 -24.179688 36.566406 -22.929688 37.984375 -21.046875 C 39.410156 -19.171875 40.125 -16.878906 40.125 -14.171875 C 40.125 -9.535156 38.644531 -6.023438 35.6875 -3.640625 C 32.726562 -1.253906 28.515625 -0.0390625 23.046875 0 Z M 14.234375 -20.984375 L 14.234375 -7.984375 L 22.75 -7.984375 C 25.082031 -7.984375 26.90625 -8.539062 28.21875 -9.65625 C 29.53125 -10.769531 30.1875 -12.304688 30.1875 -14.265625 C 30.1875 -18.679688 27.90625 -20.921875 23.34375 -20.984375 Z M 14.234375 -28 L 21.578125 -28 C 26.585938 -28.09375 29.09375 -30.09375 29.09375 -34 C 29.09375 -36.1875 28.457031 -37.757812 27.1875 -38.71875 C 25.925781 -39.675781 23.925781 -40.15625 21.1875 -40.15625 L 14.234375 -40.15625 Z M 14.234375 -28 "/></g></g></g><g fill="#ffffff" fill-opacity="1"><g transform="translate(331.996019, 211.377994)"><g><path d="M 29.296875 -12.640625 C 29.296875 -14.515625 28.632812 -15.953125 27.3125 -16.953125 C 25.988281 -17.960938 23.601562 -19.023438 20.15625 -20.140625 C 16.71875 -21.253906 13.992188 -22.351562 11.984375 -23.4375 C 6.515625 -26.394531 3.78125 -30.378906 3.78125 -35.390625 C 3.78125 -37.992188 4.507812 -40.316406 5.96875 -42.359375 C 7.4375 -44.398438 9.546875 -45.992188 12.296875 -47.140625 C 15.046875 -48.285156 18.128906 -48.859375 21.546875 -48.859375 C 24.992188 -48.859375 28.0625 -48.234375 30.75 -46.984375 C 33.445312 -45.742188 35.539062 -43.984375 37.03125 -41.703125 C 38.519531 -39.429688 39.265625 -36.851562 39.265625 -33.96875 L 29.328125 -33.96875 C 29.328125 -36.175781 28.628906 -37.890625 27.234375 -39.109375 C 25.847656 -40.335938 23.898438 -40.953125 21.390625 -40.953125 C 18.960938 -40.953125 17.070312 -40.4375 15.71875 -39.40625 C 14.375 -38.382812 13.703125 -37.035156 13.703125 -35.359375 C 13.703125 -33.785156 14.488281 -32.46875 16.0625 -31.40625 C 17.644531 -30.351562 19.972656 -29.363281 23.046875 -28.4375 C 28.691406 -26.738281 32.804688 -24.628906 35.390625 -22.109375 C 37.972656 -19.597656 39.265625 -16.46875 39.265625 -12.71875 C 39.265625 -8.539062 37.6875 -5.265625 34.53125 -2.890625 C 31.375 -0.523438 27.125 0.65625 21.78125 0.65625 C 18.070312 0.65625 14.691406 -0.0195312 11.640625 -1.375 C 8.597656 -2.726562 6.273438 -4.585938 4.671875 -6.953125 C 3.078125 -9.316406 2.28125 -12.050781 2.28125 -15.15625 L 12.25 -15.15625 C 12.25 -9.84375 15.425781 -7.1875 21.78125 -7.1875 C 24.144531 -7.1875 25.988281 -7.664062 27.3125 -8.625 C 28.632812 -9.582031 29.296875 -10.921875 29.296875 -12.640625 Z M 29.296875 -12.640625 "/></g></g></g><path stroke-linecap="butt" transform="matrix(-0.000000000000000603, -3.752094, 3.75, -0.000000000000000603, 1.873688, 292.441387)" fill="none" stroke-linejoin="miter" d="M -0.00000507814 0.000349783 L 55.96979 0.000349783 " stroke="#ffffff" stroke-width="1" stroke-opacity="1" stroke-miterlimit="4"/></svg>